<svg width="139" height="39" viewBox="0 0 139 39" fill="none" xmlns="http://www.w3.org/2000/svg">
<path d="M95.3285 5.62H96.6585V10.19H95.3285V5.62ZM96.2985 7.35H97.8885V8.43H96.2985V7.35ZM89.7485 6.03H91.0785V9.61H89.7485V6.03ZM89.7485 8.85H90.5185C91.1452 8.85 91.7985 8.82667 92.4785 8.78C93.1585 8.72667 93.8585 8.63 94.5785 8.49L94.7285 9.56C93.9818 9.71333 93.2552 9.81667 92.5485 9.87C91.8485 9.92333 91.1718 9.95 90.5185 9.95H89.7485V8.85ZM90.5485 10.58H96.6585V13.14H91.8985V14.23H90.5585V12.16H95.3285V11.61H90.5485V10.58ZM90.5585 13.74H96.9285V14.79H90.5585V13.74ZM104.818 5.63H106.138V14.89H104.818V5.63ZM105.518 9.1H107.148V10.2H105.518V9.1ZM99.6777 7.14H100.638V7.91C100.638 8.41 100.618 8.90667 100.578 9.4C100.544 9.88667 100.478 10.3533 100.378 10.8C100.278 11.24 100.131 11.6433 99.9377 12.01C99.7511 12.37 99.5011 12.6733 99.1877 12.92L98.3677 11.96C98.6544 11.74 98.8844 11.48 99.0577 11.18C99.2311 10.8733 99.3611 10.54 99.4477 10.18C99.5411 9.82 99.6011 9.45 99.6277 9.07C99.6611 8.68333 99.6777 8.29667 99.6777 7.91V7.14ZM99.9777 7.14H100.928V7.91C100.928 8.26333 100.941 8.63 100.968 9.01C101.001 9.39 101.064 9.76667 101.158 10.14C101.251 10.5067 101.388 10.8533 101.568 11.18C101.754 11.5 102.001 11.7833 102.308 12.03L101.598 13.01C101.258 12.75 100.978 12.4267 100.758 12.04C100.544 11.6533 100.381 11.23 100.268 10.77C100.154 10.31 100.078 9.83667 100.038 9.35C99.9977 8.85667 99.9777 8.37667 99.9777 7.91V7.14ZM102.288 7.14H103.228V7.91C103.228 8.38333 103.204 8.86667 103.158 9.36C103.118 9.84667 103.041 10.32 102.928 10.78C102.821 11.24 102.658 11.6633 102.438 12.05C102.224 12.43 101.944 12.75 101.598 13.01L100.908 12.03C101.208 11.7833 101.448 11.5 101.628 11.18C101.814 10.86 101.954 10.5167 102.048 10.15C102.141 9.78333 102.204 9.41 102.238 9.03C102.271 8.64333 102.288 8.27 102.288 7.91V7.14ZM102.578 7.14H103.548V7.91C103.548 8.29667 103.561 8.68333 103.588 9.07C103.621 9.45667 103.681 9.83 103.768 10.19C103.861 10.55 103.994 10.88 104.168 11.18C104.341 11.48 104.571 11.74 104.858 11.96L104.038 12.92C103.724 12.6733 103.471 12.37 103.278 12.01C103.084 11.65 102.938 11.25 102.838 10.81C102.738 10.3633 102.668 9.89333 102.628 9.4C102.594 8.90667 102.578 8.41 102.578 7.91V7.14ZM98.7177 6.42H101.448V7.48H98.7177V6.42ZM101.758 6.42H104.348V7.48H101.758V6.42ZM95.7885 24.62H97.1285V31.44H95.7885V24.62ZM92.9185 25.32H94.3185C94.3185 26.1533 94.1485 26.9067 93.8085 27.58C93.4752 28.2533 92.9885 28.8367 92.3485 29.33C91.7152 29.8167 90.9452 30.2 90.0385 30.48L89.4885 29.43C90.2085 29.2033 90.8218 28.9167 91.3285 28.57C91.8418 28.2233 92.2352 27.8267 92.5085 27.38C92.7818 26.9333 92.9185 26.45 92.9185 25.93V25.32ZM89.9885 25.32H93.7485V26.38H89.9885V25.32ZM93.8085 26.4H95.9785V27.46H93.8085V26.4ZM93.7185 28.48H95.9185V29.55H93.7185V28.48ZM91.0585 32.66H97.3585V33.73H91.0585V32.66ZM91.0585 30.79H92.3885V33.34H91.0585V30.79ZM104.938 24.63H106.268V31.28H104.938V24.63ZM100.098 32.66H106.508V33.73H100.098V32.66ZM100.098 30.62H101.428V33.1H100.098V30.62ZM101.228 25.22C101.701 25.22 102.128 25.32 102.508 25.52C102.888 25.72 103.188 25.9967 103.408 26.35C103.634 26.7033 103.748 27.11 103.748 27.57C103.748 28.0167 103.634 28.42 103.408 28.78C103.188 29.1333 102.888 29.4133 102.508 29.62C102.128 29.82 101.701 29.92 101.228 29.92C100.754 29.92 100.328 29.82 99.9477 29.62C99.5677 29.4133 99.2644 29.1333 99.0377 28.78C98.8177 28.42 98.7077 28.0167 98.7077 27.57C98.7077 27.11 98.8177 26.7033 99.0377 26.35C99.2644 25.9967 99.5677 25.72 99.9477 25.52C100.328 25.32 100.754 25.22 101.228 25.22ZM101.228 26.36C101.001 26.36 100.794 26.41 100.608 26.51C100.421 26.6033 100.274 26.74 100.168 26.92C100.061 27.0933 100.008 27.31 100.008 27.57C100.008 27.8167 100.061 28.03 100.168 28.21C100.274 28.3833 100.421 28.52 100.608 28.62C100.794 28.7133 101.001 28.76 101.228 28.76C101.454 28.76 101.661 28.7133 101.848 28.62C102.034 28.52 102.181 28.3833 102.288 28.21C102.394 28.03 102.448 27.8167 102.448 27.57C102.448 27.31 102.394 27.0933 102.288 26.92C102.181 26.74 102.034 26.6033 101.848 26.51C101.661 26.41 101.454 26.36 101.228 26.36ZM116.745 24.61H118.085V33.9H116.745V24.61ZM110.875 30.66H111.695C112.241 30.66 112.758 30.6533 113.245 30.64C113.731 30.62 114.208 30.59 114.675 30.55C115.141 30.5033 115.618 30.4367 116.105 30.35L116.245 31.42C115.498 31.5533 114.761 31.6433 114.035 31.69C113.315 31.73 112.535 31.75 111.695 31.75H110.875V30.66ZM110.855 25.4H115.225V28.99H112.225V31.07H110.875V27.94H113.875V26.47H110.855V25.4ZM121.804 29.84H123.144V33.61H121.804V29.84ZM126.084 24.62H127.424V33.88H126.084V24.62ZM119.694 30.4L119.544 29.32C120.11 29.32 120.73 29.3167 121.404 29.31C122.077 29.3033 122.764 29.28 123.464 29.24C124.164 29.2 124.844 29.1367 125.504 29.05L125.574 30.01C124.9 30.1367 124.217 30.2267 123.524 30.28C122.837 30.3333 122.167 30.3667 121.514 30.38C120.867 30.3933 120.26 30.4 119.694 30.4ZM124.234 30.85H126.344V31.85H124.234V30.85ZM122.534 25.01C122.987 25.01 123.39 25.09 123.744 25.25C124.104 25.41 124.384 25.6333 124.584 25.92C124.784 26.2 124.884 26.5267 124.884 26.9C124.884 27.28 124.784 27.6133 124.584 27.9C124.384 28.1867 124.104 28.41 123.744 28.57C123.39 28.7233 122.987 28.8 122.534 28.8C122.08 28.8 121.674 28.7233 121.314 28.57C120.96 28.41 120.68 28.1867 120.474 27.9C120.274 27.6133 120.174 27.28 120.174 26.9C120.174 26.5267 120.274 26.2 120.474 25.92C120.68 25.6333 120.96 25.41 121.314 25.25C121.674 25.09 122.08 25.01 122.534 25.01ZM122.534 26.01C122.32 26.01 122.127 26.0467 121.954 26.12C121.787 26.1867 121.657 26.2867 121.564 26.42C121.47 26.5533 121.424 26.7133 121.424 26.9C121.424 27.0933 121.47 27.2567 121.564 27.39C121.657 27.5233 121.787 27.6233 121.954 27.69C122.127 27.7567 122.32 27.79 122.534 27.79C122.754 27.79 122.944 27.7567 123.104 27.69C123.27 27.6233 123.4 27.5233 123.494 27.39C123.594 27.2567 123.644 27.0933 123.644 26.9C123.644 26.7133 123.594 26.5533 123.494 26.42C123.4 26.2867 123.27 26.1867 123.104 26.12C122.944 26.0467 122.754 26.01 122.534 26.01ZM129.753 28.9H136.263V29.95H129.753V28.9ZM128.773 31.69H137.163V32.77H128.773V31.69ZM129.753 25.38H136.193V26.46H131.073V29.34H129.753V25.38Z" fill="black"/>
<ellipse cx="19.9566" cy="19.5" rx="19.7254" ry="19.5" fill="#D3FF52"/>
<path d="M12.3699 19.1429H27.5433" stroke="black" stroke-width="3" stroke-linecap="round"/>
<path d="M20.3179 27L20.3179 12" stroke="black" stroke-width="3" stroke-linecap="round"/>
</svg>
