<svg width="97" height="71" viewBox="0 0 97 71" fill="none" xmlns="http://www.w3.org/2000/svg">
<path d="M2.904 2.399H4.07V3.543C4.07 4.12967 4.00767 4.70533 3.883 5.27C3.76567 5.83467 3.586 6.36633 3.344 6.865C3.10933 7.35633 2.81233 7.79267 2.453 8.174C2.09367 8.548 1.67567 8.845 1.199 9.065L0.363 7.91C0.788333 7.712 1.15867 7.45533 1.474 7.14C1.79667 6.82467 2.06067 6.47267 2.266 6.084C2.47867 5.688 2.63633 5.27367 2.739 4.841C2.849 4.401 2.904 3.96833 2.904 3.543V2.399ZM3.223 2.399H4.378V3.543C4.378 3.94633 4.42933 4.357 4.532 4.775C4.642 5.18567 4.79967 5.578 5.005 5.952C5.21033 6.31867 5.47067 6.64867 5.786 6.942C6.10133 7.23533 6.47533 7.47 6.908 7.646L6.105 8.812C5.621 8.59933 5.19933 8.31333 4.84 7.954C4.48067 7.59467 4.18 7.18033 3.938 6.711C3.696 6.24167 3.51633 5.73933 3.399 5.204C3.28167 4.66133 3.223 4.10767 3.223 3.543V2.399ZM0.77 1.761H6.49V2.971H0.77V1.761ZM7.436 0.793H8.899V10.979H7.436V0.793ZM11.7031 1.244H18.1491V2.399H11.7031V1.244ZM10.5701 4.907H19.7991V6.062H10.5701V4.907ZM17.2691 1.244H18.7101V2.058C18.7101 2.49067 18.6991 2.95633 18.6771 3.455C18.6551 3.95367 18.5671 4.533 18.4131 5.193L16.9501 5.182C17.1115 4.51467 17.2031 3.93533 17.2251 3.444C17.2545 2.95267 17.2691 2.49067 17.2691 2.058V1.244ZM11.6481 7.129H18.6661V10.869H11.6481V7.129ZM17.2361 8.273H13.0891V9.714H17.2361V8.273ZM27.3223 0.781999H28.7853V10.968H27.3223V0.781999ZM28.3343 4.764H30.1053V5.974H28.3343V4.764ZM22.3173 1.827H23.6813C23.6813 2.531 23.6556 3.19833 23.6043 3.829C23.5603 4.45967 23.4686 5.061 23.3293 5.633C23.1899 6.205 22.9809 6.75867 22.7023 7.294C22.4309 7.822 22.0716 8.339 21.6243 8.845L20.4803 8.009C20.8689 7.57633 21.1843 7.14 21.4263 6.7C21.6683 6.26 21.8553 5.80167 21.9873 5.325C22.1193 4.84833 22.2073 4.33867 22.2513 3.796C22.2953 3.246 22.3173 2.64467 22.3173 1.992V1.827ZM20.9313 1.827H22.8893V3.004H20.9313V1.827ZM25.1223 1.827H26.4973C26.4973 2.56033 26.4716 3.27167 26.4203 3.961C26.3763 4.643 26.2846 5.303 26.1453 5.941C26.0059 6.57167 25.8043 7.184 25.5403 7.778C25.2763 8.36467 24.9206 8.933 24.4733 9.483L23.3293 8.68C23.7179 8.18867 24.0296 7.69367 24.2643 7.195C24.4989 6.69633 24.6786 6.17933 24.8033 5.644C24.9279 5.10867 25.0123 4.54033 25.0563 3.939C25.1003 3.33767 25.1223 2.685 25.1223 1.981V1.827ZM24.0333 1.827H25.7273V3.004H24.0333V1.827ZM33.2614 2.399H34.4274V3.543C34.4274 4.12967 34.3651 4.70533 34.2404 5.27C34.1231 5.83467 33.9434 6.36633 33.7014 6.865C33.4668 7.35633 33.1698 7.79267 32.8104 8.174C32.4511 8.548 32.0331 8.845 31.5564 9.065L30.7204 7.91C31.1458 7.712 31.5161 7.45533 31.8314 7.14C32.1541 6.82467 32.4181 6.47267 32.6234 6.084C32.8361 5.688 32.9938 5.27367 33.0964 4.841C33.2064 4.401 33.2614 3.96833 33.2614 3.543V2.399ZM33.5804 2.399H34.7354V3.543C34.7354 3.94633 34.7868 4.357 34.8894 4.775C34.9994 5.18567 35.1571 5.578 35.3624 5.952C35.5678 6.31867 35.8281 6.64867 36.1434 6.942C36.4588 7.23533 36.8328 7.47 37.2654 7.646L36.4624 8.812C35.9784 8.59933 35.5568 8.31333 35.1974 7.954C34.8381 7.59467 34.5374 7.18033 34.2954 6.711C34.0534 6.24167 33.8738 5.73933 33.7564 5.204C33.6391 4.66133 33.5804 4.10767 33.5804 3.543V2.399ZM31.1274 1.761H36.8474V2.971H31.1274V1.761ZM37.7934 0.793H39.2564V10.979H37.7934V0.793ZM50.33 0.793H51.793V6.733H50.33V0.793ZM51.397 3.092H53.146V4.302H51.397V3.092ZM44.071 1.376H45.523V2.663H47.525V1.376H48.966V6.227H44.071V1.376ZM45.523 3.796V5.083H47.525V3.796H45.523ZM45.182 7.184H51.859V8.328H46.634V10.517H45.182V7.184ZM45.182 9.692H52.057V10.858H45.182V9.692ZM53.8931 5.985H63.1111V7.14H53.8931V5.985ZM55.0151 9.626H62.0771V10.803H55.0151V9.626ZM55.0151 7.822H56.4781V10H55.0151V7.822ZM58.5021 1.09C59.2428 1.09 59.8881 1.17433 60.4381 1.343C60.9955 1.51167 61.4281 1.75367 61.7361 2.069C62.0441 2.38433 62.1981 2.75467 62.1981 3.18C62.1981 3.61267 62.0441 3.98667 61.7361 4.302C61.4281 4.61733 60.9955 4.85933 60.4381 5.028C59.8881 5.19667 59.2428 5.281 58.5021 5.281C57.7688 5.281 57.1235 5.19667 56.5661 5.028C56.0161 4.85933 55.5871 4.61733 55.2791 4.302C54.9711 3.98667 54.8171 3.61267 54.8171 3.18C54.8171 2.75467 54.9711 2.38433 55.2791 2.069C55.5871 1.75367 56.0161 1.51167 56.5661 1.343C57.1235 1.17433 57.7688 1.09 58.5021 1.09ZM58.5021 2.245C58.0548 2.245 57.6661 2.28167 57.3361 2.355C57.0061 2.42833 56.7568 2.53467 56.5881 2.674C56.4195 2.806 56.3351 2.97467 56.3351 3.18C56.3351 3.38533 56.4195 3.55767 56.5881 3.697C56.7568 3.83633 57.0061 3.94267 57.3361 4.016C57.6661 4.08933 58.0548 4.126 58.5021 4.126C58.9641 4.126 59.3565 4.08933 59.6791 4.016C60.0018 3.94267 60.2475 3.83633 60.4161 3.697C60.5921 3.55767 60.6801 3.38533 60.6801 3.18C60.6801 2.97467 60.5921 2.806 60.4161 2.674C60.2475 2.53467 60.0018 2.42833 59.6791 2.355C59.3565 2.28167 58.9641 2.245 58.5021 2.245ZM73.8877 0.770999H75.3617V10.99H73.8877V0.770999ZM67.4307 7.426H68.3327C68.934 7.426 69.5024 7.41867 70.0377 7.404C70.573 7.382 71.0974 7.349 71.6107 7.305C72.124 7.25367 72.6484 7.18033 73.1837 7.085L73.3377 8.262C72.5164 8.40867 71.706 8.50767 70.9067 8.559C70.1147 8.603 69.2567 8.625 68.3327 8.625H67.4307V7.426ZM67.4087 1.64H72.2157V5.589H68.9157V7.877H67.4307V4.434H70.7307V2.817H67.4087V1.64ZM79.4528 6.524H80.9268V10.671H79.4528V6.524ZM84.1608 0.781999H85.6348V10.968H84.1608V0.781999ZM77.1318 7.14L76.9668 5.952C77.5902 5.952 78.2722 5.94833 79.0128 5.941C79.7535 5.93367 80.5088 5.908 81.2788 5.864C82.0488 5.82 82.7968 5.75033 83.5228 5.655L83.5998 6.711C82.8592 6.85033 82.1075 6.94933 81.3448 7.008C80.5895 7.06667 79.8525 7.10333 79.1338 7.118C78.4225 7.13267 77.7552 7.14 77.1318 7.14ZM82.1258 7.635H84.4468V8.735H82.1258V7.635ZM80.2558 1.211C80.7545 1.211 81.1982 1.299 81.5868 1.475C81.9828 1.651 82.2908 1.89667 82.5108 2.212C82.7308 2.52 82.8408 2.87933 82.8408 3.29C82.8408 3.708 82.7308 4.07467 82.5108 4.39C82.2908 4.70533 81.9828 4.951 81.5868 5.127C81.1982 5.29567 80.7545 5.38 80.2558 5.38C79.7572 5.38 79.3098 5.29567 78.9138 5.127C78.5252 4.951 78.2172 4.70533 77.9898 4.39C77.7698 4.07467 77.6598 3.708 77.6598 3.29C77.6598 2.87933 77.7698 2.52 77.9898 2.212C78.2172 1.89667 78.5252 1.651 78.9138 1.475C79.3098 1.299 79.7572 1.211 80.2558 1.211ZM80.2558 2.311C80.0212 2.311 79.8085 2.35133 79.6178 2.432C79.4345 2.50533 79.2915 2.61533 79.1888 2.762C79.0862 2.90867 79.0348 3.08467 79.0348 3.29C79.0348 3.50267 79.0862 3.68233 79.1888 3.829C79.2915 3.97567 79.4345 4.08567 79.6178 4.159C79.8085 4.23233 80.0212 4.269 80.2558 4.269C80.4978 4.269 80.7068 4.23233 80.8828 4.159C81.0662 4.08567 81.2092 3.97567 81.3118 3.829C81.4218 3.68233 81.4768 3.50267 81.4768 3.29C81.4768 3.08467 81.4218 2.90867 81.3118 2.762C81.2092 2.61533 81.0662 2.50533 80.8828 2.432C80.7068 2.35133 80.4978 2.311 80.2558 2.311ZM88.197 5.49H95.358V6.645H88.197V5.49ZM87.119 8.559H96.348V9.747H87.119V8.559ZM88.197 1.618H95.281V2.806H89.649V5.974H88.197V1.618ZM4.301 40H2.915V35.105C2.915 34.8703 2.91867 34.621 2.926 34.357C2.93333 34.093 2.94433 33.8473 2.959 33.62C2.88567 33.6933 2.794 33.7813 2.684 33.884C2.574 33.9793 2.46033 34.0783 2.343 34.181L1.463 34.885L0.77 34.027L3.146 32.146H4.301V40ZM10.5959 40H9.20992V35.105C9.20992 34.8703 9.21359 34.621 9.22092 34.357C9.22826 34.093 9.23926 33.8473 9.25392 33.62C9.18059 33.6933 9.08892 33.7813 8.97892 33.884C8.86892 33.9793 8.75526 34.0783 8.63792 34.181L7.75792 34.885L7.06492 34.027L9.44092 32.146H10.5959V40ZM15.4938 34.918H16.9568V36.689H15.4938V34.918ZM20.1468 30.782H21.6098V36.678H20.1468V30.782ZM13.1948 35.38L13.0408 34.368C13.6935 34.368 14.3865 34.3643 15.1198 34.357C15.8532 34.3497 16.5975 34.3313 17.3528 34.302C18.1082 34.2727 18.8415 34.225 19.5528 34.159L19.6298 35.061C18.8965 35.1637 18.1558 35.237 17.4078 35.281C16.6598 35.325 15.9302 35.3543 15.2188 35.369C14.5075 35.3763 13.8328 35.38 13.1948 35.38ZM14.4928 36.997H21.6098V39.384H15.9558V40.187H14.5038V38.46H20.1688V37.987H14.4928V36.997ZM14.5038 39.901H21.8518V40.913H14.5038V39.901ZM18.3538 35.501H20.5978V36.381H18.3538V35.501ZM16.2748 30.936C16.7808 30.936 17.2245 30.9983 17.6058 31.123C17.9872 31.2477 18.2842 31.4237 18.4968 31.651C18.7095 31.8783 18.8158 32.1497 18.8158 32.465C18.8158 32.773 18.7095 33.0407 18.4968 33.268C18.2842 33.4953 17.9872 33.6713 17.6058 33.796C17.2245 33.9207 16.7808 33.983 16.2748 33.983C15.7688 33.983 15.3215 33.9207 14.9328 33.796C14.5515 33.6713 14.2545 33.4953 14.0418 33.268C13.8292 33.0407 13.7228 32.773 13.7228 32.465C13.7228 32.1497 13.8292 31.8783 14.0418 31.651C14.2545 31.4237 14.5515 31.2477 14.9328 31.123C15.3215 30.9983 15.7688 30.936 16.2748 30.936ZM16.2748 31.893C15.9155 31.893 15.6258 31.9407 15.4058 32.036C15.1932 32.1313 15.0868 32.2743 15.0868 32.465C15.0868 32.6483 15.1932 32.7877 15.4058 32.883C15.6258 32.9783 15.9155 33.026 16.2748 33.026C16.6415 33.026 16.9275 32.9783 17.1328 32.883C17.3455 32.7877 17.4518 32.6483 17.4518 32.465C17.4518 32.2743 17.3455 32.1313 17.1328 32.036C16.9275 31.9407 16.6415 31.893 16.2748 31.893ZM33.0684 30.782H34.5424V38.284H33.0684V30.782ZM29.9114 31.552H31.4514C31.4514 32.4687 31.2644 33.2973 30.8904 34.038C30.5237 34.7787 29.9884 35.4203 29.2844 35.963C28.5877 36.4983 27.7407 36.92 26.7434 37.228L26.1384 36.073C26.9304 35.8237 27.6051 35.5083 28.1624 35.127C28.7271 34.7457 29.1597 34.3093 29.4604 33.818C29.7611 33.3267 29.9114 32.795 29.9114 32.223V31.552ZM26.6884 31.552H30.8244V32.718H26.6884V31.552ZM30.8904 32.74H33.2774V33.906H30.8904V32.74ZM30.7914 35.028H33.2114V36.205H30.7914V35.028ZM27.8654 39.626H34.7954V40.803H27.8654V39.626ZM27.8654 37.569H29.3284V40.374H27.8654V37.569ZM43.1325 30.793H44.5955V38.108H43.1325V30.793ZM37.8085 39.626H44.8595V40.803H37.8085V39.626ZM37.8085 37.382H39.2715V40.11H37.8085V37.382ZM39.0515 31.442C39.5722 31.442 40.0415 31.552 40.4595 31.772C40.8775 31.992 41.2075 32.2963 41.4495 32.685C41.6989 33.0737 41.8235 33.521 41.8235 34.027C41.8235 34.5183 41.6989 34.962 41.4495 35.358C41.2075 35.7467 40.8775 36.0547 40.4595 36.282C40.0415 36.502 39.5722 36.612 39.0515 36.612C38.5309 36.612 38.0615 36.502 37.6435 36.282C37.2255 36.0547 36.8919 35.7467 36.6425 35.358C36.4005 34.962 36.2795 34.5183 36.2795 34.027C36.2795 33.521 36.4005 33.0737 36.6425 32.685C36.8919 32.2963 37.2255 31.992 37.6435 31.772C38.0615 31.552 38.5309 31.442 39.0515 31.442ZM39.0515 32.696C38.8022 32.696 38.5749 32.751 38.3695 32.861C38.1642 32.9637 38.0029 33.114 37.8855 33.312C37.7682 33.5027 37.7095 33.741 37.7095 34.027C37.7095 34.2983 37.7682 34.533 37.8855 34.731C38.0029 34.9217 38.1642 35.072 38.3695 35.182C38.5749 35.2847 38.8022 35.336 39.0515 35.336C39.3009 35.336 39.5282 35.2847 39.7335 35.182C39.9389 35.072 40.1002 34.9217 40.2175 34.731C40.3349 34.533 40.3935 34.2983 40.3935 34.027C40.3935 33.741 40.3349 33.5027 40.2175 33.312C40.1002 33.114 39.9389 32.9637 39.7335 32.861C39.5282 32.751 39.3009 32.696 39.0515 32.696ZM56.1201 30.771H57.5941V40.99H56.1201V30.771ZM49.6631 37.426H50.5651C51.1664 37.426 51.7348 37.4187 52.2701 37.404C52.8054 37.382 53.3298 37.349 53.8431 37.305C54.3564 37.2537 54.8808 37.1803 55.4161 37.085L55.5701 38.262C54.7488 38.4087 53.9384 38.5077 53.1391 38.559C52.3471 38.603 51.4891 38.625 50.5651 38.625H49.6631V37.426ZM49.6411 31.64H54.4481V35.589H51.1481V37.877H49.6631V34.434H52.9631V32.817H49.6411V31.64ZM61.6852 36.524H63.1593V40.671H61.6852V36.524ZM66.3933 30.782H67.8673V40.968H66.3933V30.782ZM59.3643 37.14L59.1993 35.952C59.8226 35.952 60.5046 35.9483 61.2453 35.941C61.9859 35.9337 62.7413 35.908 63.5113 35.864C64.2813 35.82 65.0293 35.7503 65.7553 35.655L65.8323 36.711C65.0916 36.8503 64.3399 36.9493 63.5773 37.008C62.8219 37.0667 62.0849 37.1033 61.3663 37.118C60.6549 37.1327 59.9876 37.14 59.3643 37.14ZM64.3583 37.635H66.6793V38.735H64.3583V37.635ZM62.4883 31.211C62.9869 31.211 63.4306 31.299 63.8193 31.475C64.2153 31.651 64.5233 31.8967 64.7433 32.212C64.9633 32.52 65.0733 32.8793 65.0733 33.29C65.0733 33.708 64.9633 34.0747 64.7433 34.39C64.5233 34.7053 64.2153 34.951 63.8193 35.127C63.4306 35.2957 62.9869 35.38 62.4883 35.38C61.9896 35.38 61.5423 35.2957 61.1463 35.127C60.7576 34.951 60.4496 34.7053 60.2223 34.39C60.0023 34.0747 59.8923 33.708 59.8923 33.29C59.8923 32.8793 60.0023 32.52 60.2223 32.212C60.4496 31.8967 60.7576 31.651 61.1463 31.475C61.5423 31.299 61.9896 31.211 62.4883 31.211ZM62.4883 32.311C62.2536 32.311 62.0409 32.3513 61.8503 32.432C61.6669 32.5053 61.5239 32.6153 61.4213 32.762C61.3186 32.9087 61.2673 33.0847 61.2673 33.29C61.2673 33.5027 61.3186 33.6823 61.4213 33.829C61.5239 33.9757 61.6669 34.0857 61.8503 34.159C62.0409 34.2323 62.2536 34.269 62.4883 34.269C62.7303 34.269 62.9393 34.2323 63.1153 34.159C63.2986 34.0857 63.4416 33.9757 63.5443 33.829C63.6543 33.6823 63.7093 33.5027 63.7093 33.29C63.7093 33.0847 63.6543 32.9087 63.5443 32.762C63.4416 32.6153 63.2986 32.5053 63.1153 32.432C62.9393 32.3513 62.7303 32.311 62.4883 32.311ZM70.4294 35.49H77.5904V36.645H70.4294V35.49ZM69.3514 38.559H78.5804V39.747H69.3514V38.559ZM70.4294 31.618H77.5134V32.806H71.8814V35.974H70.4294V31.618ZM4.301 70H2.915V65.105C2.915 64.8703 2.91867 64.621 2.926 64.357C2.93333 64.093 2.94433 63.8473 2.959 63.62C2.88567 63.6933 2.794 63.7813 2.684 63.884C2.574 63.9793 2.46033 64.0783 2.343 64.181L1.463 64.885L0.77 64.027L3.146 62.146H4.301V70ZM10.5959 70H9.20992V65.105C9.20992 64.8703 9.21359 64.621 9.22092 64.357C9.22826 64.093 9.23926 63.8473 9.25392 63.62C9.18059 63.6933 9.08892 63.7813 8.97892 63.884C8.86892 63.9793 8.75526 64.0783 8.63792 64.181L7.75792 64.885L7.06492 64.027L9.44092 62.146H10.5959V70ZM15.4938 64.918H16.9568V66.689H15.4938V64.918ZM20.1468 60.782H21.6098V66.678H20.1468V60.782ZM13.1948 65.38L13.0408 64.368C13.6935 64.368 14.3865 64.3643 15.1198 64.357C15.8532 64.3497 16.5975 64.3313 17.3528 64.302C18.1082 64.2727 18.8415 64.225 19.5528 64.159L19.6298 65.061C18.8965 65.1637 18.1558 65.237 17.4078 65.281C16.6598 65.325 15.9302 65.3543 15.2188 65.369C14.5075 65.3763 13.8328 65.38 13.1948 65.38ZM14.4928 66.997H21.6098V69.384H15.9558V70.187H14.5038V68.46H20.1688V67.987H14.4928V66.997ZM14.5038 69.901H21.8518V70.913H14.5038V69.901ZM18.3538 65.501H20.5978V66.381H18.3538V65.501ZM16.2748 60.936C16.7808 60.936 17.2245 60.9983 17.6058 61.123C17.9872 61.2477 18.2842 61.4237 18.4968 61.651C18.7095 61.8783 18.8158 62.1497 18.8158 62.465C18.8158 62.773 18.7095 63.0407 18.4968 63.268C18.2842 63.4953 17.9872 63.6713 17.6058 63.796C17.2245 63.9207 16.7808 63.983 16.2748 63.983C15.7688 63.983 15.3215 63.9207 14.9328 63.796C14.5515 63.6713 14.2545 63.4953 14.0418 63.268C13.8292 63.0407 13.7228 62.773 13.7228 62.465C13.7228 62.1497 13.8292 61.8783 14.0418 61.651C14.2545 61.4237 14.5515 61.2477 14.9328 61.123C15.3215 60.9983 15.7688 60.936 16.2748 60.936ZM16.2748 61.893C15.9155 61.893 15.6258 61.9407 15.4058 62.036C15.1932 62.1313 15.0868 62.2743 15.0868 62.465C15.0868 62.6483 15.1932 62.7877 15.4058 62.883C15.6258 62.9783 15.9155 63.026 16.2748 63.026C16.6415 63.026 16.9275 62.9783 17.1328 62.883C17.3455 62.7877 17.4518 62.6483 17.4518 62.465C17.4518 62.2743 17.3455 62.1313 17.1328 62.036C16.9275 61.9407 16.6415 61.893 16.2748 61.893ZM29.7794 61.915H31.0554V62.223C31.0554 62.575 30.9967 62.916 30.8794 63.246C30.7694 63.576 30.6007 63.884 30.3734 64.17C30.1461 64.4487 29.8674 64.7017 29.5374 64.929C29.2147 65.149 28.8407 65.336 28.4154 65.49C27.9901 65.644 27.5171 65.754 26.9964 65.82L26.4574 64.687C26.9121 64.6283 27.3154 64.5403 27.6674 64.423C28.0267 64.2983 28.3384 64.1553 28.6024 63.994C28.8664 63.8253 29.0864 63.6457 29.2624 63.455C29.4384 63.2643 29.5667 63.0627 29.6474 62.85C29.7354 62.6373 29.7794 62.4283 29.7794 62.223V61.915ZM30.2084 61.915H31.4734V62.223C31.4734 62.4283 31.5137 62.6373 31.5944 62.85C31.6824 63.0627 31.8144 63.2643 31.9904 63.455C32.1664 63.6457 32.3864 63.8253 32.6504 63.994C32.9217 64.1553 33.2334 64.2983 33.5854 64.423C33.9374 64.5403 34.3407 64.6283 34.7954 64.687L34.2564 65.82C33.7357 65.754 33.2627 65.644 32.8374 65.49C32.4121 65.336 32.0344 65.149 31.7044 64.929C31.3817 64.7017 31.1067 64.4487 30.8794 64.17C30.6594 63.884 30.4907 63.576 30.3734 63.246C30.2634 62.916 30.2084 62.575 30.2084 62.223V61.915ZM29.8564 67.25H31.3194V70.979H29.8564V67.25ZM26.0174 66.403H35.2354V67.58H26.0174V66.403ZM26.8314 61.31H34.3884V62.465H26.8314V61.31ZM38.3585 63.433H39.5025V63.961C39.5025 64.4963 39.4439 65.0243 39.3265 65.545C39.2165 66.0657 39.0442 66.557 38.8095 67.019C38.5822 67.481 38.2962 67.8917 37.9515 68.251C37.6069 68.6103 37.1999 68.8927 36.7305 69.098L35.9495 67.965C36.3602 67.7817 36.7159 67.5433 37.0165 67.25C37.3245 66.9493 37.5775 66.6193 37.7755 66.26C37.9735 65.8933 38.1202 65.5157 38.2155 65.127C38.3109 64.731 38.3585 64.3423 38.3585 63.961V63.433ZM38.6885 63.433H39.8105V63.961C39.8105 64.3203 39.8582 64.687 39.9535 65.061C40.0489 65.435 40.1882 65.7943 40.3715 66.139C40.5622 66.4837 40.8005 66.8027 41.0865 67.096C41.3799 67.382 41.7245 67.6203 42.1205 67.811L41.3395 68.911C40.8922 68.713 40.5035 68.438 40.1735 68.086C39.8435 67.734 39.5685 67.338 39.3485 66.898C39.1285 66.4507 38.9635 65.9777 38.8535 65.479C38.7435 64.973 38.6885 64.467 38.6885 63.961V63.433ZM36.2905 62.443H41.8455V63.598H36.2905V62.443ZM38.3585 61.024H39.8215V63.048H38.3585V61.024ZM42.6375 60.793H44.1115V70.979H42.6375V60.793ZM43.7925 64.742H45.5855V65.952H43.7925V64.742ZM56.1201 60.771H57.5941V70.99H56.1201V60.771ZM49.6631 67.426H50.5651C51.1664 67.426 51.7348 67.4187 52.2701 67.404C52.8054 67.382 53.3298 67.349 53.8431 67.305C54.3564 67.2537 54.8808 67.1803 55.4161 67.085L55.5701 68.262C54.7488 68.4087 53.9384 68.5077 53.1391 68.559C52.3471 68.603 51.4891 68.625 50.5651 68.625H49.6631V67.426ZM49.6411 61.64H54.4481V65.589H51.1481V67.877H49.6631V64.434H52.9631V62.817H49.6411V61.64ZM61.6852 66.524H63.1593V70.671H61.6852V66.524ZM66.3933 60.782H67.8673V70.968H66.3933V60.782ZM59.3643 67.14L59.1993 65.952C59.8226 65.952 60.5046 65.9483 61.2453 65.941C61.9859 65.9337 62.7413 65.908 63.5113 65.864C64.2813 65.82 65.0293 65.7503 65.7553 65.655L65.8323 66.711C65.0916 66.8503 64.3399 66.9493 63.5773 67.008C62.8219 67.0667 62.0849 67.1033 61.3663 67.118C60.6549 67.1327 59.9876 67.14 59.3643 67.14ZM64.3583 67.635H66.6793V68.735H64.3583V67.635ZM62.4883 61.211C62.9869 61.211 63.4306 61.299 63.8193 61.475C64.2153 61.651 64.5233 61.8967 64.7433 62.212C64.9633 62.52 65.0733 62.8793 65.0733 63.29C65.0733 63.708 64.9633 64.0747 64.7433 64.39C64.5233 64.7053 64.2153 64.951 63.8193 65.127C63.4306 65.2957 62.9869 65.38 62.4883 65.38C61.9896 65.38 61.5423 65.2957 61.1463 65.127C60.7576 64.951 60.4496 64.7053 60.2223 64.39C60.0023 64.0747 59.8923 63.708 59.8923 63.29C59.8923 62.8793 60.0023 62.52 60.2223 62.212C60.4496 61.8967 60.7576 61.651 61.1463 61.475C61.5423 61.299 61.9896 61.211 62.4883 61.211ZM62.4883 62.311C62.2536 62.311 62.0409 62.3513 61.8503 62.432C61.6669 62.5053 61.5239 62.6153 61.4213 62.762C61.3186 62.9087 61.2673 63.0847 61.2673 63.29C61.2673 63.5027 61.3186 63.6823 61.4213 63.829C61.5239 63.9757 61.6669 64.0857 61.8503 64.159C62.0409 64.2323 62.2536 64.269 62.4883 64.269C62.7303 64.269 62.9393 64.2323 63.1153 64.159C63.2986 64.0857 63.4416 63.9757 63.5443 63.829C63.6543 63.6823 63.7093 63.5027 63.7093 63.29C63.7093 63.0847 63.6543 62.9087 63.5443 62.762C63.4416 62.6153 63.2986 62.5053 63.1153 62.432C62.9393 62.3513 62.7303 62.311 62.4883 62.311ZM70.4294 65.49H77.5904V66.645H70.4294V65.49ZM69.3514 68.559H78.5804V69.747H69.3514V68.559ZM70.4294 61.618H77.5134V62.806H71.8814V65.974H70.4294V61.618Z" fill="black"/>
</svg>
