<svg width="74" height="48" viewBox="0 0 74 48" fill="none" xmlns="http://www.w3.org/2000/svg">
<path d="M13.67 35.5008H2.04987L11.4152 0.851562H23.0353L13.67 35.5008Z" fill="#D3FF52"/>
<path d="M33.172 27.4477C31.0551 27.4338 29.4153 23.1226 30.4356 21.5594C33.9926 16.1096 36.972 11.5765 40.0456 6.48259L45.9727 6.30139L50.8846 0.851562H33.6682C30.1035 6.16093 26.5389 11.4714 22.9742 16.7808C22.2122 17.9151 22.1677 19.295 22.8534 20.4626L29.7092 32.1288C30.8579 34.0834 33.2216 35.3196 35.8092 35.3196L67.1303 35.5008L74 27.5539C68.4457 27.5185 38.7251 27.4831 33.1707 27.4477H33.172Z" fill="#D3FF52"/>
<path d="M73.7951 40.1372L70.439 45.0096L69.817 47.3187H67.5053L68.1272 45.0096L67.2471 40.1372H69.5119L69.6762 43.2499L71.4834 40.1372H73.7951Z" fill="#95C800"/>
<path d="M67.2118 40.1372L66.848 41.5104H65.0878L63.5388 47.3187H61.2035L62.7525 41.5104H60.9923L61.3561 40.1372H67.2118Z" fill="#95C800"/>
<path d="M61.3444 40.1372L60.9806 41.5104H59.2204L57.6714 47.3187H55.3362L56.8852 41.5104H55.1249L55.4887 40.1372H61.3444Z" fill="#95C800"/>
<path d="M55.33 40.1372L52.7249 43.6466L53.6989 47.3187H51.3167L50.5892 43.9924L49.7091 47.3187H47.4091L49.3218 40.1372H51.6219L50.7417 43.433L52.9479 40.1372H55.33Z" fill="#95C800"/>
<path d="M48.2305 41.5006C48.2305 41.6939 48.207 41.8973 48.1484 42.1007L47.9724 42.7823H45.6841L45.8601 42.1211C45.8953 41.9787 45.907 41.8668 45.907 41.7854C45.907 41.5616 45.7075 41.4294 45.379 41.4294C45.2147 41.4294 45.0621 41.4599 44.9682 41.5311C44.8978 41.5718 44.8626 41.6227 44.8157 41.6939C44.7805 41.7549 44.7453 41.8363 44.7218 41.9176C44.6983 41.9787 44.6749 42.0804 44.6397 42.2228L43.8065 45.3151C43.7596 45.488 43.7478 45.5898 43.7478 45.6711C43.7478 45.9051 43.9356 46.0373 44.2994 46.0373C44.6983 46.0373 44.8626 45.8848 44.9917 45.3762L45.1795 44.6641H47.4912L47.3973 45.0506C47.1744 45.956 46.9514 46.4239 46.5407 46.7799C46.0244 47.2376 45.2147 47.4513 44.0764 47.4513C42.281 47.4513 41.4361 46.9427 41.4361 45.8644C41.4361 45.5898 41.483 45.3049 41.659 44.6539L42.3044 42.2533C42.5391 41.3989 42.7621 40.9716 43.208 40.6054C43.7009 40.1986 44.4636 39.9951 45.5198 39.9951C47.3035 39.9951 48.2305 40.5139 48.2305 41.5006Z" fill="#95C800"/>
<path d="M42.1228 40.1372L40.21 47.3187H37.8631L39.7758 40.1372H42.1228Z" fill="#95C800"/>
<path d="M39.1947 40.1372L36.5896 43.6466L37.5636 47.3187H35.1814L34.4538 43.9924L33.5737 47.3187H31.2737L33.1865 40.1372H35.4865L34.6064 43.433L36.8125 40.1372H39.1947Z" fill="#95C800"/>
<path d="M28.7271 41.6728C28.7271 41.9678 28.6802 42.2119 28.5511 42.7103L27.9174 45.0804C27.7414 45.7213 27.5537 46.1892 27.2955 46.5249C26.8613 47.0945 25.9225 47.42 24.7138 47.42C23.9041 47.42 23.1883 47.2674 22.672 47.003C22.1674 46.7487 21.921 46.3316 21.921 45.7721C21.921 45.467 21.9679 45.2127 22.097 44.7346L22.7893 42.1407C23.2001 40.6047 24.0684 40.0249 25.9343 40.0249C27.7766 40.0249 28.7271 40.5844 28.7271 41.6728ZM26.4154 41.7847C26.4154 41.5304 26.2159 41.388 25.8756 41.388C25.7113 41.388 25.5587 41.4287 25.4531 41.4999C25.3123 41.5914 25.2419 41.6931 25.1598 42.0186L24.2679 45.3856C24.2327 45.5077 24.221 45.5992 24.221 45.6602C24.221 45.9044 24.4322 46.057 24.7725 46.057C24.9368 46.057 25.0894 46.0163 25.195 45.9451C25.3358 45.8535 25.3827 45.7518 25.4766 45.4161L26.3684 42.0491C26.4037 41.9271 26.4154 41.8457 26.4154 41.7847Z" fill="#95C800"/>
<path d="M21.4283 45.9556L21.0645 47.3187H16.6053L18.5181 40.1372H20.8298L19.2808 45.9556H21.4283Z" fill="#95C800"/>
<path d="M16.5349 45.9556L16.1711 47.3187H11.7119L13.6246 40.1372H15.9364L14.3874 45.9556H16.5349Z" fill="#95C800"/>
<path d="M13.0318 40.1372L12.6562 41.5308H10.4618L10.0746 42.9854H12.1047L11.7409 44.3586H9.71081L9.28836 45.9353H11.4828L11.119 47.3187H6.58936L8.50213 40.1372H13.0318Z" fill="#95C800"/>
<path d="M7.67456 40.1372L5.76179 47.3187H3.4383L4.20106 44.4502H3.10972L2.34696 47.3187H0L1.91277 40.1372H4.25973L3.50871 42.965H4.60004L5.35107 40.1372H7.67456Z" fill="#95C800"/>
</svg>
