<svg width="83" height="18" viewBox="0 0 83 18" fill="none" xmlns="http://www.w3.org/2000/svg">
<path d="M11.0569 11.7983L14.4698 16.0785" stroke="black" stroke-width="2" stroke-linecap="round" stroke-linejoin="round"/>
<path d="M1.54541 6.66622C1.54541 9.79557 4.1503 12.3324 7.36359 12.3324C8.973 12.3324 10.4299 11.696 11.4832 10.6675C12.5329 9.64259 13.1818 8.2282 13.1818 6.66622C13.1818 3.53685 10.5769 1 7.36359 1C4.1503 1 1.54541 3.53685 1.54541 6.66622Z" stroke="black" stroke-width="2" stroke-linecap="round" stroke-linejoin="round"/>
<path d="M45.9045 5.76047C45.9045 4.49791 45.4251 3.28707 44.5717 2.39431C43.7183 1.50155 42.5609 1 41.354 1C40.1471 1 38.9897 1.50155 38.1363 2.39431C37.2829 3.28707 36.8035 4.49791 36.8035 5.76047C36.8035 11.3144 34.5282 12.9012 34.5282 12.9012H48.1798C48.1798 12.9012 45.9045 11.3144 45.9045 5.76047Z" stroke="black" stroke-width="2" stroke-linecap="round" stroke-linejoin="round"/>
<path d="M42.6661 15.1328C42.5328 15.3583 42.3415 15.5454 42.1111 15.6754C41.8809 15.8055 41.6198 15.874 41.3541 15.874C41.0883 15.874 40.8273 15.8055 40.597 15.6754C40.3667 15.5454 40.1753 15.3583 40.042 15.1328" stroke="black" stroke-width="2" stroke-linecap="round" stroke-linejoin="round"/>
<line x1="67.1887" y1="2" x2="83.0001" y2="2" stroke="black" stroke-width="2"/>
<line x1="67.1887" y1="8.04541" x2="83.0001" y2="8.04541" stroke="black" stroke-width="2"/>
<line x1="67.1887" y1="14.5562" x2="83.0001" y2="14.5562" stroke="black" stroke-width="2"/>
</svg>
