<svg width="17" height="17" viewBox="0 0 17 17" fill="none" xmlns="http://www.w3.org/2000/svg">
<g id="&#240;&#159;&#166;&#134; icon &#34;coin&#34;">
<path id="Vector" d="M8.655 16.31C12.8827 16.31 16.31 12.8827 16.31 8.655C16.31 4.42726 12.8827 1 8.655 1C4.42726 1 1 4.42726 1 8.655C1 12.8827 4.42726 16.31 8.655 16.31Z" stroke="black" stroke-linecap="round" stroke-linejoin="round"/>
<path id="Vector_2" d="M10.9515 5.97575C10.4272 5.45139 9.50373 5.08666 8.65502 5.06382M8.65502 5.06382C7.64525 5.03665 6.74127 5.49347 6.74127 6.74126C6.74127 9.03775 10.9515 7.8895 10.9515 10.186C10.9515 11.4958 9.83098 12.0586 8.65502 12.0163M8.65502 5.06382V3.67925M6.35852 10.9515C6.85187 11.6093 7.76918 11.9845 8.65502 12.0163M8.65502 12.0163V13.6307" stroke="black" stroke-linecap="round" stroke-linejoin="round"/>
</g>
</svg>
