<svg width="17" height="17" viewBox="0 0 17 17" fill="none" xmlns="http://www.w3.org/2000/svg">
<g id="&#240;&#159;&#166;&#134; icon &#34;organic food&#34;">
<path id="Vector" d="M6.25 13C6.25 13 6.925 10.1941 8.5 8.5" stroke="black" stroke-linecap="round" stroke-linejoin="round"/>
<path id="Vector_2" d="M11.6393 4.931L11.9201 7.84795C12.1024 9.7402 10.6836 11.4251 8.79128 11.6073C6.93455 11.7861 5.25256 10.4289 5.07377 8.57215C4.89499 6.71542 6.25524 5.0653 8.11201 4.88653L11.222 4.58706C11.4323 4.56682 11.6191 4.72081 11.6393 4.931Z" stroke="black" stroke-linecap="round" stroke-linejoin="round"/>
<path id="Vector_3" d="M8.5 16C12.6421 16 16 12.6421 16 8.5C16 4.35786 12.6421 1 8.5 1C4.35786 1 1 4.35786 1 8.5C1 12.6421 4.35786 16 8.5 16Z" stroke="black" stroke-linecap="round" stroke-linejoin="round"/>
</g>
</svg>
